<svg width="97" height="20" viewBox="0 0 97 20" fill="none" xmlns="http://www.w3.org/2000/svg">
<path d="M16.7344 16.4453C16.6875 16.8516 16.6172 17.25 16.5234 17.6406C16.4453 18.0312 16.3438 18.3828 16.2188 18.6953C16.0938 18.9922 15.9297 19.2266 15.7266 19.3984C15.5391 19.5859 15.3203 19.6797 15.0703 19.6797C14.8203 19.6797 14.5938 19.4844 14.3906 19.0938C14.1875 18.7188 13.9922 18.2188 13.8047 17.5938C13.6328 16.9531 13.4688 16.2344 13.3125 15.4375C13.1719 14.6406 13.0391 13.8359 12.9141 13.0234C12.8047 12.1953 12.7109 11.3906 12.6328 10.6094C12.5547 9.82812 12.4922 9.14844 12.4453 8.57031C12.3516 9.16406 12.2422 9.82812 12.1172 10.5625C11.9922 11.2969 11.8438 12.0469 11.6719 12.8125C11.5 13.5625 11.3125 14.3047 11.1094 15.0391C10.9062 15.7578 10.6875 16.4062 10.4531 16.9844C10.2188 17.5469 9.96875 18 9.70312 18.3438C9.4375 18.6875 9.15625 18.8594 8.85938 18.8594C8.59375 18.8594 8.32812 18.6797 8.0625 18.3203C7.79688 17.9609 7.53906 17.4922 7.28906 16.9141C7.03906 16.3203 6.80469 15.6641 6.58594 14.9453C6.36719 14.2266 6.16406 13.5078 5.97656 12.7891C5.78906 12.0547 5.625 11.3672 5.48438 10.7266C5.34375 10.0703 5.23438 9.52344 5.15625 9.08594C5.15625 9.41406 5.14844 9.78125 5.13281 10.1875C5.13281 10.5781 5.13281 10.8594 5.13281 11.0312C5.13281 11.1094 5.125 11.3672 5.10938 11.8047C5.10938 12.2422 5.08594 12.7656 5.03906 13.375C4.99219 13.9844 4.92188 14.6406 4.82812 15.3438C4.73438 16.0312 4.59375 16.6719 4.40625 17.2656C4.23438 17.8594 4.01562 18.3594 3.75 18.7656C3.48438 19.1719 3.15625 19.3906 2.76562 19.4219C2.45312 19.2812 2.1875 19.0469 1.96875 18.7188C1.76562 18.375 1.59375 17.9766 1.45312 17.5234C1.3125 17.0703 1.20312 16.5859 1.125 16.0703C1.04688 15.5547 0.984375 15.0547 0.9375 14.5703C0.890625 14.0703 0.859375 13.6094 0.84375 13.1875C0.84375 12.7656 0.84375 12.4219 0.84375 12.1562C0.84375 11.6875 0.867188 11.1016 0.914062 10.3984C0.976562 9.67969 1.07031 8.92969 1.19531 8.14844C1.32031 7.36719 1.48438 6.58594 1.6875 5.80469C1.89062 5.02344 2.13281 4.32812 2.41406 3.71875C2.71094 3.09375 3.04688 2.58594 3.42188 2.19531C3.8125 1.80469 4.25781 1.60938 4.75781 1.60938C4.99219 1.60938 5.24219 1.74219 5.50781 2.00781C5.77344 2.27344 6.03906 2.625 6.30469 3.0625C6.57031 3.48438 6.82812 3.96094 7.07812 4.49219C7.32812 5.02344 7.5625 5.5625 7.78125 6.10938C8.01562 6.64062 8.21875 7.15625 8.39062 7.65625C8.5625 8.14062 8.70312 8.55469 8.8125 8.89844C8.9375 8.52344 9.09375 8.08594 9.28125 7.58594C9.46875 7.08594 9.67188 6.57031 9.89062 6.03906C10.125 5.49219 10.375 4.96094 10.6406 4.44531C10.9219 3.91406 11.2109 3.44531 11.5078 3.03906C11.8047 2.61719 12.1016 2.28125 12.3984 2.03125C12.7109 1.76562 13.0234 1.63281 13.3359 1.63281C13.8828 1.63281 14.3516 1.83594 14.7422 2.24219C15.1328 2.64844 15.4609 3.17969 15.7266 3.83594C15.9922 4.47656 16.2031 5.20312 16.3594 6.01562C16.5156 6.8125 16.6328 7.60938 16.7109 8.40625C16.8047 9.1875 16.8594 9.92188 16.875 10.6094C16.9062 11.2969 16.9219 11.8516 16.9219 12.2734C16.9219 12.4453 16.9219 12.6797 16.9219 12.9766C16.9219 13.2734 16.9141 13.6094 16.8984 13.9844C16.8984 14.3594 16.8828 14.7578 16.8516 15.1797C16.8203 15.6016 16.7812 16.0234 16.7344 16.4453ZM28.8516 12.2969C28.8516 13.1562 28.7656 14.0078 28.5938 14.8516C28.4219 15.6953 28.1328 16.4531 27.7266 17.125C27.3203 17.7812 26.7734 18.3125 26.0859 18.7188C25.4141 19.125 24.5703 19.3281 23.5547 19.3281C22.5547 19.3281 21.7188 19.1328 21.0469 18.7422C20.375 18.3359 19.8359 17.8047 19.4297 17.1484C19.0391 16.4922 18.7578 15.75 18.5859 14.9219C18.4297 14.0938 18.3516 13.25 18.3516 12.3906C18.3516 11.4531 18.4609 10.5234 18.6797 9.60156C18.7266 9.35156 18.8125 9.00781 18.9375 8.57031C19.0781 8.11719 19.25 7.67969 19.4531 7.25781C19.6719 6.82031 19.9141 6.44531 20.1797 6.13281C20.4609 5.82031 20.7656 5.66406 21.0938 5.66406C21.4062 5.66406 21.6562 5.75 21.8438 5.92188C22.0312 6.09375 22.1797 6.3125 22.2891 6.57812C22.3984 6.82812 22.4688 7.10156 22.5 7.39844C22.5312 7.67969 22.5469 7.9375 22.5469 8.17188C22.5469 8.53125 22.5156 8.88281 22.4531 9.22656C22.4062 9.57031 22.3516 9.91406 22.2891 10.2578C22.2266 10.7266 22.1641 11.1953 22.1016 11.6641C22.0547 12.1328 22.0312 12.6016 22.0312 13.0703C22.0312 13.3047 22.0391 13.5703 22.0547 13.8672C22.0859 14.1484 22.1484 14.4219 22.2422 14.6875C22.3359 14.9531 22.4688 15.1797 22.6406 15.3672C22.8125 15.5391 23.0547 15.625 23.3672 15.625C23.7734 15.625 24.0938 15.5156 24.3281 15.2969C24.5781 15.0781 24.7578 14.8047 24.8672 14.4766C24.9922 14.1484 25.0703 13.7969 25.1016 13.4219C25.1328 13.0469 25.1484 12.7031 25.1484 12.3906C25.1484 11.7031 25.1016 11.0312 25.0078 10.375C24.9141 9.70312 24.8281 9.02344 24.75 8.33594C24.7344 8.25781 24.7266 8.14844 24.7266 8.00781C24.7266 7.77344 24.7656 7.53906 24.8438 7.30469C24.9219 7.07031 25.0312 6.85938 25.1719 6.67188C25.3125 6.48438 25.4844 6.33594 25.6875 6.22656C25.8906 6.10156 26.1172 6.03906 26.3672 6.03906C26.7109 6.03906 27.0156 6.16406 27.2812 6.41406C27.5469 6.64844 27.7656 6.96094 27.9375 7.35156C28.125 7.72656 28.2734 8.15625 28.3828 8.64062C28.5078 9.10938 28.6016 9.57812 28.6641 10.0469C28.7422 10.5 28.7891 10.9297 28.8047 11.3359C28.8359 11.7422 28.8516 12.0625 28.8516 12.2969ZM36.9375 19.6562C36.6719 19.6562 36.4609 19.5312 36.3047 19.2812C36.1484 19.0469 36.0312 18.7734 35.9531 18.4609C35.875 18.1484 35.8203 17.8359 35.7891 17.5234C35.7734 17.1953 35.7656 16.9453 35.7656 16.7734C35.7656 16.3047 35.7891 15.8359 35.8359 15.3672C35.8984 14.8984 35.9609 14.4297 36.0234 13.9609C36.1016 13.4922 36.1641 13.0234 36.2109 12.5547C36.2734 12.0859 36.3047 11.6172 36.3047 11.1484C36.3047 10.9609 36.2969 10.7578 36.2812 10.5391C36.2656 10.3203 36.2266 10.1172 36.1641 9.92969C36.1172 9.72656 36.0312 9.5625 35.9062 9.4375C35.7812 9.3125 35.6172 9.25 35.4141 9.25C35.2734 9.25 35.1172 9.36719 34.9453 9.60156C34.7734 9.82031 34.6094 10.0781 34.4531 10.375C34.3125 10.6562 34.1875 10.9453 34.0781 11.2422C33.9844 11.5234 33.9375 11.7344 33.9375 11.875C33.9375 12.2188 33.9375 12.5703 33.9375 12.9297C33.9531 13.2734 33.9609 13.625 33.9609 13.9844V15.3438C33.9453 15.625 33.9219 15.9141 33.8906 16.2109C33.8594 16.5078 33.8125 16.7969 33.75 17.0781C33.7031 17.3594 33.6328 17.6328 33.5391 17.8984C33.4453 18.1484 33.3203 18.375 33.1641 18.5781C33.0234 18.7656 32.8516 18.9219 32.6484 19.0469C32.4453 19.1719 32.2031 19.2344 31.9219 19.2344C31.6094 19.2344 31.3516 19.1328 31.1484 18.9297C30.9453 18.7266 30.7812 18.4688 30.6562 18.1562C30.5312 17.8281 30.4375 17.4688 30.375 17.0781C30.3281 16.6719 30.2891 16.2812 30.2578 15.9062C30.2422 15.5156 30.2344 15.1641 30.2344 14.8516C30.25 14.5234 30.2578 14.2656 30.2578 14.0781V12.9766C30.2578 12.3828 30.2422 11.7969 30.2109 11.2188C30.1953 10.6406 30.1875 10.0625 30.1875 9.48438C30.1875 9.17188 30.1875 8.77344 30.1875 8.28906C30.2031 7.80469 30.2656 7.33594 30.375 6.88281C30.4844 6.41406 30.6641 6.01562 30.9141 5.6875C31.1641 5.35938 31.5312 5.19531 32.0156 5.19531C32.2344 5.19531 32.4297 5.26562 32.6016 5.40625C32.7734 5.54688 32.9219 5.71875 33.0469 5.92188C33.1875 6.125 33.2969 6.34375 33.375 6.57812C33.4688 6.8125 33.5391 7.01562 33.5859 7.1875C33.7422 6.96875 33.9219 6.75781 34.125 6.55469C34.3438 6.35156 34.5859 6.17188 34.8516 6.01562C35.1172 5.85938 35.4141 5.73438 35.7422 5.64062C36.0703 5.54688 36.4453 5.5 36.8672 5.5C37.6641 5.5 38.2812 5.69531 38.7188 6.08594C39.1719 6.46094 39.5 6.9375 39.7031 7.51562C39.9219 8.07812 40.0547 8.6875 40.1016 9.34375C40.1484 10 40.1719 10.5938 40.1719 11.125C40.1719 11.3906 40.1484 11.7891 40.1016 12.3203C40.0547 12.8359 39.9766 13.4141 39.8672 14.0547C39.7734 14.6797 39.6406 15.3281 39.4688 16C39.2969 16.6562 39.0938 17.2578 38.8594 17.8047C38.625 18.3516 38.3438 18.7969 38.0156 19.1406C37.7031 19.4844 37.3438 19.6562 36.9375 19.6562ZM50.1797 10C50.1797 10.0781 50.1719 10.1641 50.1562 10.2578C50.1406 10.3359 50.1172 10.4141 50.0859 10.4922C49.9453 10.8516 49.7266 11.1562 49.4297 11.4062C49.1328 11.6406 48.7812 11.7578 48.375 11.7578C47.7656 11.7578 47.3516 11.4531 47.1328 10.8438C47.1016 10.7656 47.0859 10.6797 47.0859 10.5859C47.0859 10.4766 47.0781 10.3672 47.0625 10.2578V9.57812C47.0312 9.35938 46.9766 9.1875 46.8984 9.0625C46.8203 8.9375 46.6875 8.875 46.5 8.875C46.2344 8.875 45.9766 9.04688 45.7266 9.39062C45.4922 9.71875 45.2812 10.1172 45.0938 10.5859C44.9219 11.0391 44.7812 11.5078 44.6719 11.9922C44.5625 12.4766 44.5078 12.8672 44.5078 13.1641C44.5078 13.3984 44.5234 13.6875 44.5547 14.0312C44.5859 14.3594 44.6484 14.6797 44.7422 14.9922C44.8359 15.3047 44.9609 15.5781 45.1172 15.8125C45.2891 16.0312 45.5078 16.1406 45.7734 16.1406C46.0391 16.1406 46.2812 16.0625 46.5 15.9062C46.7344 15.7344 46.9609 15.5391 47.1797 15.3203C47.3828 15.1328 47.6016 14.9375 47.8359 14.7344C48.0859 14.5312 48.3672 14.4297 48.6797 14.4297C49.0703 14.4297 49.375 14.5703 49.5938 14.8516C49.8281 15.1328 49.9453 15.4531 49.9453 15.8125C49.9453 16.3438 49.8047 16.8438 49.5234 17.3125C49.2422 17.7656 48.8906 18.1641 48.4688 18.5078C48.0469 18.8359 47.5781 19.0938 47.0625 19.2812C46.5469 19.4844 46.0547 19.5859 45.5859 19.5859C44.7422 19.5859 44.0234 19.375 43.4297 18.9531C42.8516 18.5312 42.3828 18 42.0234 17.3594C41.6641 16.7031 41.4062 15.9922 41.25 15.2266C41.0938 14.4609 41.0156 13.7344 41.0156 13.0469C41.0156 12.25 41.125 11.3906 41.3438 10.4688C41.5625 9.53125 41.8984 8.66406 42.3516 7.86719C42.8047 7.07031 43.3828 6.40625 44.0859 5.875C44.8047 5.34375 45.6562 5.07812 46.6406 5.07812C47.25 5.07812 47.7734 5.21094 48.2109 5.47656C48.6641 5.74219 49.0312 6.09375 49.3125 6.53125C49.6094 6.95312 49.8281 7.42969 49.9688 7.96094C50.125 8.49219 50.2031 9.01562 50.2031 9.53125C50.2031 9.60938 50.2031 9.6875 50.2031 9.76562C50.2031 9.84375 50.1953 9.92188 50.1797 10ZM62.1328 12.9297C62.1328 13.1953 62.125 13.5938 62.1094 14.125C62.1094 14.6406 62.0859 15.1875 62.0391 15.7656C62.0078 16.3281 61.9609 16.8672 61.8984 17.3828C61.8359 17.8828 61.7578 18.25 61.6641 18.4844C61.5391 18.7812 61.375 19.0391 61.1719 19.2578C60.9688 19.4766 60.6953 19.5859 60.3516 19.5859C59.8203 19.5859 59.4375 19.375 59.2031 18.9531C58.9688 18.5312 58.8125 18.0078 58.7344 17.3828C58.6562 16.7578 58.625 16.0781 58.6406 15.3438C58.6562 14.6094 58.6484 13.9297 58.6172 13.3047C58.5859 12.6797 58.5 12.1562 58.3594 11.7344C58.2188 11.3125 57.9609 11.1016 57.5859 11.1016C57.0703 11.1016 56.6719 11.1875 56.3906 11.3594C56.125 11.5156 55.9297 11.7266 55.8047 11.9922C55.6953 12.2578 55.625 12.5625 55.5938 12.9062C55.5781 13.25 55.5547 13.6094 55.5234 13.9844C55.4922 14.3438 55.4688 14.8281 55.4531 15.4375C55.4375 16.0469 55.3672 16.6484 55.2422 17.2422C55.1172 17.8359 54.9062 18.3516 54.6094 18.7891C54.3281 19.2109 53.9062 19.4219 53.3438 19.4219C53 19.4219 52.7188 19.2891 52.5 19.0234C52.2969 18.7578 52.1328 18.4141 52.0078 17.9922C51.8828 17.5703 51.7891 17.1016 51.7266 16.5859C51.6797 16.0703 51.6484 15.5703 51.6328 15.0859C51.6328 14.5859 51.6328 14.1328 51.6328 13.7266C51.6484 13.3203 51.6562 13.0156 51.6562 12.8125C51.6562 12.5 51.6641 11.9844 51.6797 11.2656C51.7109 10.5469 51.7656 9.75 51.8438 8.875C51.9219 7.98438 52.0234 7.07031 52.1484 6.13281C52.2734 5.19531 52.4375 4.34375 52.6406 3.57812C52.8438 2.79687 53.0859 2.16406 53.3672 1.67969C53.6641 1.19531 54.0078 0.960938 54.3984 0.976562C54.6484 0.992187 54.8594 1.10156 55.0312 1.30469C55.2188 1.50781 55.3672 1.77344 55.4766 2.10156C55.6016 2.41406 55.7031 2.75781 55.7812 3.13281C55.8594 3.50781 55.9141 3.88281 55.9453 4.25781C55.9922 4.61719 56.0156 4.95312 56.0156 5.26562C56.0312 5.57812 56.0391 5.82031 56.0391 5.99219C56.0391 6.39844 56.0312 6.80469 56.0156 7.21094C56 7.61719 55.9766 8.02344 55.9453 8.42969C56.3047 7.94531 56.7812 7.54688 57.375 7.23438C57.9844 6.92188 58.5938 6.76562 59.2031 6.76562C59.9844 6.76562 60.5703 6.98438 60.9609 7.42188C61.3672 7.84375 61.6562 8.375 61.8281 9.01562C62 9.64062 62.0938 10.3125 62.1094 11.0312C62.125 11.7344 62.1328 12.3672 62.1328 12.9297ZM74.8828 11.2656C74.8828 11.7188 74.8438 12.2344 74.7656 12.8125C74.7031 13.375 74.5938 13.9531 74.4375 14.5469C74.2969 15.1406 74.1016 15.7188 73.8516 16.2812C73.6172 16.8438 73.3203 17.3516 72.9609 17.8047C72.6172 18.2422 72.2109 18.5938 71.7422 18.8594C71.2891 19.125 70.7578 19.2578 70.1484 19.2578C69.5078 19.2578 68.9219 19.1094 68.3906 18.8125C67.875 18.5156 67.4297 18.1094 67.0547 17.5938C67.0078 18.0156 66.8359 18.3906 66.5391 18.7188C66.2422 19.0312 65.8672 19.1875 65.4141 19.1875C65.1484 19.1875 64.9219 19.0547 64.7344 18.7891C64.5625 18.5234 64.4219 18.1875 64.3125 17.7812C64.2031 17.3594 64.1172 16.8984 64.0547 16.3984C64.0078 15.8984 63.9766 15.4141 63.9609 14.9453C63.9453 14.4766 63.9375 14.0547 63.9375 13.6797C63.9375 13.3047 63.9375 13.0391 63.9375 12.8828C63.9375 12.3516 63.9375 11.8203 63.9375 11.2891C63.9531 10.7578 63.9688 10.2188 63.9844 9.67188C63.9844 9.40625 63.9766 9.00781 63.9609 8.47656C63.9609 7.94531 63.9688 7.35938 63.9844 6.71875C64 6.0625 64.0312 5.39844 64.0781 4.72656C64.1406 4.03906 64.2422 3.41406 64.3828 2.85156C64.5234 2.28906 64.7188 1.82813 64.9688 1.46875C65.2188 1.10937 65.5391 0.921875 65.9297 0.90625C66.2422 0.90625 66.5078 1.01562 66.7266 1.23438C66.9453 1.45313 67.125 1.74219 67.2656 2.10156C67.4219 2.46094 67.5391 2.86719 67.6172 3.32031C67.7109 3.75781 67.7734 4.20312 67.8047 4.65625C67.8516 5.09375 67.875 5.51562 67.875 5.92188C67.8906 6.3125 67.8984 6.63281 67.8984 6.88281C67.8984 6.92969 67.8906 7.03906 67.875 7.21094C67.875 7.36719 67.875 7.53906 67.875 7.72656C67.875 7.91406 67.875 8.08594 67.875 8.24219C67.875 8.38281 67.875 8.46094 67.875 8.47656C68.0156 8.17969 68.2188 7.89062 68.4844 7.60938C68.75 7.32812 69.0469 7.07812 69.375 6.85938C69.7031 6.64062 70.0469 6.46094 70.4062 6.32031C70.7656 6.17969 71.1094 6.10938 71.4375 6.10938C72.0938 6.10938 72.6406 6.28125 73.0781 6.625C73.5312 6.95312 73.8906 7.375 74.1562 7.89062C74.4219 8.40625 74.6094 8.96875 74.7188 9.57812C74.8281 10.1719 74.8828 10.7344 74.8828 11.2656ZM71.4375 11.9688C71.4375 11.7812 71.4219 11.5781 71.3906 11.3594C71.375 11.1406 71.3203 10.9375 71.2266 10.75C71.1484 10.5625 71.0312 10.4062 70.875 10.2812C70.7344 10.1562 70.5469 10.0938 70.3125 10.0938C70.0625 10.0938 69.8125 10.1484 69.5625 10.2578C69.3281 10.3672 69.1016 10.5078 68.8828 10.6797C68.6641 10.8516 68.4609 11.0391 68.2734 11.2422C68.0859 11.4297 67.9219 11.6172 67.7812 11.8047L67.5469 13.8906C67.7969 14.25 68.1016 14.5391 68.4609 14.7578C68.8203 14.9609 69.2266 15.0625 69.6797 15.0625C70.0234 15.0625 70.3047 14.9531 70.5234 14.7344C70.7578 14.5156 70.9375 14.25 71.0625 13.9375C71.2031 13.6094 71.2969 13.2656 71.3438 12.9062C71.4062 12.5469 71.4375 12.2344 71.4375 11.9688ZM80.7656 19.6797C79.9688 19.6797 79.2734 19.4688 78.6797 19.0469C78.0859 18.625 77.5859 18.0859 77.1797 17.4297C76.7734 16.7734 76.4688 16.0469 76.2656 15.25C76.0625 14.4375 75.9609 13.6406 75.9609 12.8594C75.9609 12.0312 76.0625 11.1797 76.2656 10.3047C76.4688 9.41406 76.7812 8.60938 77.2031 7.89062C77.625 7.15625 78.1641 6.5625 78.8203 6.10938C79.4766 5.64062 80.2578 5.40625 81.1641 5.40625C82.0391 5.40625 82.7812 5.64844 83.3906 6.13281C84.0156 6.60156 84.5156 7.19531 84.8906 7.91406C85.2656 8.61719 85.5312 9.39062 85.6875 10.2344C85.8438 11.0781 85.8984 11.875 85.8516 12.625C85.8047 13.4531 85.6719 14.2891 85.4531 15.1328C85.25 15.9766 84.9453 16.7344 84.5391 17.4062C84.1328 18.0781 83.6172 18.625 82.9922 19.0469C82.3672 19.4688 81.625 19.6797 80.7656 19.6797ZM81 9.08594C80.7656 9.08594 80.5547 9.21094 80.3672 9.46094C80.1953 9.71094 80.0469 10.0156 79.9219 10.375C79.8125 10.7344 79.7266 11.1172 79.6641 11.5234C79.6016 11.9141 79.5703 12.2578 79.5703 12.5547C79.5703 12.9297 79.6016 13.3359 79.6641 13.7734C79.7422 14.2109 79.8438 14.6172 79.9688 14.9922C80.0938 15.3516 80.2422 15.6562 80.4141 15.9062C80.6016 16.1406 80.8125 16.2578 81.0469 16.2578C81.2969 16.2578 81.5078 16.1406 81.6797 15.9062C81.8672 15.6719 82.0156 15.375 82.125 15.0156C82.2344 14.6562 82.3125 14.2656 82.3594 13.8438C82.4062 13.4062 82.4297 13 82.4297 12.625C82.4297 12.2812 82.3984 11.9062 82.3359 11.5C82.2734 11.0781 82.1797 10.6875 82.0547 10.3281C81.9453 9.96875 81.7969 9.67188 81.6094 9.4375C81.4375 9.20312 81.2344 9.08594 81 9.08594ZM96.7031 6.90625C96.7031 7.15625 96.6562 7.42188 96.5625 7.70312C96.4688 7.96875 96.3516 8.24219 96.2109 8.52344C96.0703 8.80469 95.9219 9.07812 95.7656 9.34375C95.6094 9.59375 95.4688 9.82812 95.3438 10.0469C95.0312 10.5469 94.7188 11.0547 94.4062 11.5703C94.1094 12.0859 93.8047 12.5938 93.4922 13.0938C93.6328 13.3125 93.8281 13.6172 94.0781 14.0078C94.3281 14.3984 94.5703 14.8125 94.8047 15.25C95.0547 15.6719 95.2656 16.0938 95.4375 16.5156C95.6094 16.9375 95.6953 17.2969 95.6953 17.5938C95.6953 17.875 95.5859 18.1484 95.3672 18.4141C95.1484 18.6797 94.8828 18.8125 94.5703 18.8125C94.2422 18.8125 93.9062 18.6953 93.5625 18.4609C93.2344 18.2266 92.9062 17.9531 92.5781 17.6406C92.2656 17.3125 91.9766 16.9766 91.7109 16.6328C91.4453 16.2734 91.2188 15.9766 91.0312 15.7422C90.8281 15.9609 90.5625 16.2578 90.2344 16.6328C89.9219 17.0078 89.5781 17.375 89.2031 17.7344C88.8438 18.0938 88.4844 18.4062 88.125 18.6719C87.7656 18.9219 87.4453 19.0469 87.1641 19.0469C86.8359 19.0469 86.5781 18.9297 86.3906 18.6953C86.2031 18.4609 86.1094 18.1875 86.1094 17.875C86.1094 17.5625 86.2109 17.1641 86.4141 16.6797C86.6328 16.1953 86.8828 15.6953 87.1641 15.1797C87.4609 14.6641 87.75 14.1719 88.0312 13.7031C88.3281 13.2344 88.5547 12.8672 88.7109 12.6016C88.5547 12.3203 88.3594 11.9531 88.125 11.5C87.8906 11.0312 87.6641 10.5469 87.4453 10.0469C87.2422 9.53125 87.0625 9.03125 86.9062 8.54688C86.7656 8.04688 86.6953 7.63281 86.6953 7.30469C86.6953 6.94531 86.8047 6.65625 87.0234 6.4375C87.2422 6.21875 87.5312 6.10938 87.8906 6.10938C88.2812 6.10938 88.6484 6.26562 88.9922 6.57812C89.3359 6.875 89.6562 7.24219 89.9531 7.67969C90.25 8.10156 90.5078 8.54688 90.7266 9.01562C90.9609 9.46875 91.1484 9.84375 91.2891 10.1406C91.4766 9.85938 91.7344 9.47656 92.0625 8.99219C92.4062 8.50781 92.7891 8.03125 93.2109 7.5625C93.6328 7.09375 94.0703 6.6875 94.5234 6.34375C94.9766 6 95.4062 5.82812 95.8125 5.82812C96.0781 5.82812 96.2891 5.94531 96.4453 6.17969C96.6172 6.39844 96.7031 6.64062 96.7031 6.90625Z" fill="url(#paint0_linear)"/>
<defs>
<linearGradient id="paint0_linear" x1="0" y1="10" x2="97" y2="10" gradientUnits="userSpaceOnUse">
<stop stop-color="#3300FF"/>
<stop offset="1" stop-color="#FF0099"/>
</linearGradient>
</defs>
</svg>
